<svg xmlns="http://www.w3.org/2000/svg" viewBox="0 0 900 900" role="img" aria-labelledby="title desc">
  <title id="title">Identite FresCoop</title>
  <desc id="desc">Identite FresCoop avec feuilles, QR code, marche agricole et slogan Vendre Tracer Prouver.</desc>
  <defs>
    <radialGradient id="bg" cx="50%" cy="42%" r="64%">
      <stop offset="0" stop-color="#ffffff"/>
      <stop offset="0.7" stop-color="#fdfefe"/>
      <stop offset="1" stop-color="#f3f5f3"/>
    </radialGradient>
    <linearGradient id="leaf" x1="0" x2="1" y1="0" y2="1">
      <stop offset="0" stop-color="#178b5d"/>
      <stop offset="0.58" stop-color="#0d6c3d"/>
      <stop offset="1" stop-color="#073f24"/>
    </linearGradient>
    <linearGradient id="gold" x1="0" x2="1" y1="0" y2="1">
      <stop offset="0" stop-color="#d29a42"/>
      <stop offset="1" stop-color="#b97821"/>
    </linearGradient>
    <filter id="shadow" x="-18%" y="-18%" width="136%" height="136%">
      <feDropShadow dx="0" dy="13" stdDeviation="15" flood-color="#062f27" flood-opacity=".13"/>
    </filter>
    <style>
      .dark{fill:#075331}
      .leaf{fill:url(#leaf)}
      .line{fill:none;stroke:#075331;stroke-width:15;stroke-linecap:round;stroke-linejoin:round}
      .white-line{fill:none;stroke:#fff;stroke-width:17;stroke-linecap:round;stroke-linejoin:round}
      .qr{fill:#075331}
      .gold{fill:url(#gold)}
      .word{font:900 96px Arial, Helvetica, sans-serif;fill:#075331}
      .tag{font:700 27px Arial, Helvetica, sans-serif;fill:#075331}
    </style>
  </defs>

  <rect width="900" height="900" fill="url(#bg)"/>

  <g filter="url(#shadow)">
    <path class="leaf" d="M446 331C389 222 405 111 462 45c76 72 91 188 31 299l-28 52z"/>
    <path class="leaf" d="M415 383C302 374 217 310 194 226c108-25 208 16 273 123l39 64z"/>
    <path class="leaf" d="M491 385c65-103 166-140 271-109-17 94-102 161-226 166l-73 3z"/>
  </g>

  <path class="white-line" d="M462 173c27 70 26 136-4 198"/>
  <circle cx="459" cy="166" r="15" fill="#fff"/>
  <path class="white-line" d="M319 282c55 59 121 96 197 111"/>
  <circle cx="311" cy="273" r="15" fill="#fff"/>
  <path class="white-line" d="M643 285c-57 58-123 94-199 109"/>
  <circle cx="651" cy="276" r="15" fill="#fff"/>

  <g transform="translate(225 375)">
    <path class="line" d="M28 0H0v28M0 158v28h28M158 186h28v-28"/>
    <rect class="qr" x="27" y="28" width="54" height="54" rx="2"/>
    <rect fill="#fff" x="41" y="42" width="26" height="26"/>
    <rect class="qr" x="46" y="47" width="16" height="16"/>
    <rect class="qr" x="27" y="108" width="54" height="54" rx="2"/>
    <rect fill="#fff" x="41" y="122" width="26" height="26"/>
    <rect class="qr" x="46" y="127" width="16" height="16"/>
    <rect class="qr" x="104" y="29" width="25" height="44"/>
    <rect class="qr" x="143" y="29" width="16" height="16"/>
    <rect class="qr" x="104" y="91" width="17" height="17"/>
    <rect class="qr" x="132" y="91" width="31" height="17"/>
    <rect class="qr" x="105" y="122" width="27" height="40"/>
    <rect class="qr" x="148" y="141" width="16" height="21"/>
  </g>

  <path class="line" d="M349 534c50-95 179-137 282-95 73 30 107 89 92 149-19 76-121 123-235 109-106-14-188-76-195-148-5-54 24-86 56-15z"/>
  <path class="line" d="M724 515c-2 52-25 92-65 121"/>

  <g transform="translate(515 465)">
    <path class="dark" d="M33 0h136l19 59c5 16-7 31-23 31-15 0-27-11-29-25-2 14-14 25-29 25s-27-11-29-25c-2 14-14 25-29 25S22 79 20 65C18 79 6 90-9 90c-16 0-28-15-23-31z"/>
    <path class="line" d="M11 105v63M177 105v63"/>
    <path class="dark" d="M65 134c39 0 70 31 70 70H65z"/>
    <rect class="gold" x="29" y="177" width="139" height="48" rx="6"/>
    <path fill="#fff" opacity=".72" d="M45 196h106l-10 21H54z"/>
  </g>

  <text class="word" x="206" y="741">FresCoop</text>
  <text class="tag" x="275" y="796">Vendre. Tracer. Prouver.</text>
</svg>
